<svg width="1000" height="1000">
<rect x="190" y="25" width="40" height="50" style="fill:rgb(26,5,119)"></rect>
<rect x="280" y="25" width="40" height="50" style="fill:rgb(26,5,119)"></rect>
<rect x="370" y="25" width="40" height="50" style="fill:rgb(26,5,119)"></rect>
<rect x="460" y="25" width="40" height="50" style="fill:rgb(26,5,119)"></rect>
<rect x="550" y="25" width="40" height="50" style="fill:rgb(26,5,119)"></rect>
<rect x="640" y="25" width="40" height="50" style="fill:rgb(26,5,119)"></rect>
<rect x="730" y="25" width="40" height="50" style="fill:rgb(26,5,119)"></rect>
<rect x="820" y="25" width="40" height="50" style="fill:rgb(26,5,119)"></rect>
<rect x="100" y="150" width="40" height="50" style="fill:rgb(26,5,119)"></rect>
<rect x="190" y="150" width="40" height="50" style="fill:rgb(26,5,119)"></rect>
<rect x="300" y="150" width="60" height="40" style="fill:rgb(200,116,73)"></rect>
<rect x="410" y="150" width="60" height="40" style="fill:rgb(200,116,73)"></rect>
<rect x="520" y="150" width="60" height="40" style="fill:rgb(200,116,73)"></rect>
<rect x="610" y="150" width="40" height="50" style="fill:rgb(69,226,252)"></rect>
<rect x="700" y="150" width="40" height="50" style="fill:rgb(69,226,252)"></rect>
<rect x="790" y="150" width="40" height="50" style="fill:rgb(69,226,252)"></rect>
<rect x="880" y="150" width="40" height="50" style="fill:rgb(69,226,252)"></rect>
<rect x="100" y="275" width="40" height="50" style="fill:rgb(69,226,252)"></rect>
<rect x="190" y="275" width="40" height="50" style="fill:rgb(69,226,252)"></rect>
<rect x="280" y="275" width="40" height="50" style="fill:rgb(69,226,252)"></rect>
<rect x="370" y="275" width="40" height="50" style="fill:rgb(69,226,252)"></rect>
<rect x="460" y="275" width="40" height="50" style="fill:rgb(69,226,252)"></rect>
<rect x="550" y="275" width="40" height="50" style="fill:rgb(69,226,252)"></rect>
</svg>